<svg xmlns="http://www.w3.org/2000/svg" version="1.1" xmlns:xlink="http://www.w3.org/1999/xlink" xmlns:svgjs="http://svgjs.com/svgjs" width="171px" height="199px"><svg width="171px" height="199px" viewBox="0 0 171 199" version="1.1" xmlns="http://www.w3.org/2000/svg" xmlns:xlink="http://www.w3.org/1999/xlink">
    <title>Asset 1</title>
    <g id="SvgjsG1002" stroke="none" stroke-width="1" fill="none" fill-rule="evenodd">
        <g id="SvgjsG1001" transform="translate(0.000000, -0.000564)" fill="#000000" fill-rule="nonzero">
            <path d="M164.400336,190.300564 C164.408279,190.674344 164.263439,191.035269 163.999072,191.299636 C163.734705,191.564003 163.37378,191.708843 163,191.700564 L19.9,191.700564 C12.6098413,191.700564 6.7,185.790723 6.7,178.500564 C6.7,171.210405 12.6098413,165.300564 19.9,165.300564 L164.400336,165.300564 L164.400336,190.300564 Z M52.5,33.6005642 C55.5269122,33.5787815 58.5247545,34.1919765 61.3,35.4005642 C64.3803657,26.0839032 73.0873131,19.7921676 82.8999977,19.7921676 C92.7126869,19.7921676 101.419634,26.0839032 104.5,35.4005642 C107.2813,34.2112368 110.275082,33.5988723 113.3,33.6005642 C125.806988,33.5784427 135.966903,43.6936005 136,56.2005642 C136,62.4005642 132.3,68.8005642 126.1,73.7005642 L126.1,136.230564 C126.083714,138.046315 124.615751,139.514278 122.8,139.530564 L43.1,139.530564 C41.2842489,139.514278 39.8162857,138.046315 39.8,136.230564 L39.8,73.6005642 C33.5,68.7005642 29.8999977,62.3005642 29.8999977,56.1005642 C29.897267,50.1150047 32.2806622,44.3752767 36.5224664,40.1522415 C40.7642706,35.9292064 46.5145116,33.5712878 52.5,33.6005642 Z M147.8,0.000278724508 L13,0.000278724508 C5.85917007,0.000278724508 0.0549294579,5.75994549 0,12.9005642 L0,178.500564 C0.0385925207,189.458833 8.94167537,198.317177 19.9,198.300587 L163,198.300587 C167.418278,198.300587 171,194.718842 171,190.300564 L171,14.2005642 C170.997414,10.4179258 169.486771,6.79242616 166.802673,4.12709774 C164.118575,1.46176931 160.482563,-0.0233943275 156.7,0.000278724508 L147.8,0.000278724508 L147.8,0.000278724508 Z" id="SvgjsPath1000"></path>
        </g>
    </g>
</svg><style>@media (prefers-color-scheme: light) { :root { filter: none; } }
@media (prefers-color-scheme: dark) { :root { filter: invert(100%); } }
</style></svg>