<?xml version="1.0" encoding="UTF-8"?>
<svg width="540px" height="220px" viewBox="0 0 540 220" version="1.1" xmlns="http://www.w3.org/2000/svg" xmlns:xlink="http://www.w3.org/1999/xlink">
    <!-- Generator: Sketch 52.5 (67469) - http://www.bohemiancoding.com/sketch -->
    <title>Artboard</title>
    <desc>Created with Sketch.</desc>
    <g id="Artboard" stroke="none" stroke-width="1" fill="none" fill-rule="evenodd">
        <g id="Group" transform="translate(38.000000, 23.000000)" fill="#314f2e">
            <path d="M205.9,71 C205.299997,71 204.833335,70.700003 204.5,70.1 L189.1,38.3 C189.033333,38.099999 188.900001,38 188.7,38 L169.9,38 C169.633332,38 169.5,38.133332 169.5,38.4 L169.5,69.8 C169.5,70.133335 169.383334,70.4166655 169.15,70.65 C168.916666,70.8833345 168.633335,71 168.3,71 L165.4,71 C165.066665,71 164.783335,70.8833345 164.55,70.65 C164.316665,70.4166655 164.2,70.133335 164.2,69.8 L164.2,2 C164.2,1.666665 164.316665,1.3833345 164.55,1.15 C164.783335,0.9166655 165.066665,0.8 165.4,0.8 L190.4,0.8 C196.000028,0.8 200.51665,2.533316 203.95,6 C207.383351,9.466684 209.1,13.999972 209.1,19.6 C209.1,24.400024 207.783346,28.4166505 205.15,31.65 C202.516654,34.8833495 199.000022,36.866663 194.6,37.6 C194.266665,37.733334 194.166666,37.899999 194.3,38.1 L209.6,69.6 C209.733334,69.866668 209.8,70.066666 209.8,70.2 C209.8,70.733336 209.433337,71 208.7,71 L205.9,71 Z M169.9,5.6 C169.633332,5.6 169.5,5.733332 169.5,6 L169.5,33.2 C169.5,33.466668 169.633332,33.6 169.9,33.6 L189.9,33.6 C194.033354,33.6 197.383321,32.3166795 199.95,29.75 C202.51668,27.1833205 203.8,23.833354 203.8,19.7 C203.8,15.433312 202.51668,12.0166795 199.95,9.45 C197.383321,6.8833205 194.033354,5.6 189.9,5.6 L169.9,5.6 Z M267,4.5 C267,4.833335 266.883334,5.1166655 266.65,5.35 C266.416666,5.5833345 266.133335,5.7 265.8,5.7 L228.1,5.7 C227.833332,5.7 227.7,5.833332 227.7,6.1 L227.7,33.1 C227.7,33.366668 227.833332,33.5 228.1,33.5 L254.8,33.5 C255.133335,33.5 255.416666,33.6166655 255.65,33.85 C255.883334,34.0833345 256,34.366665 256,34.7 L256,37 C256,37.333335 255.883334,37.6166655 255.65,37.85 C255.416666,38.0833345 255.133335,38.2 254.8,38.2 L228.1,38.2 C227.833332,38.2 227.7,38.333332 227.7,38.6 L227.7,65.9 C227.7,66.166668 227.833332,66.3 228.1,66.3 L265.8,66.3 C266.133335,66.3 266.416666,66.4166655 266.65,66.65 C266.883334,66.8833345 267,67.166665 267,67.5 L267,69.8 C267,70.133335 266.883334,70.4166655 266.65,70.65 C266.416666,70.8833345 266.133335,71 265.8,71 L223.6,71 C223.266665,71 222.983335,70.8833345 222.75,70.65 C222.516665,70.4166655 222.4,70.133335 222.4,69.8 L222.4,2.2 C222.4,1.866665 222.516665,1.5833345 222.75,1.35 C222.983335,1.1166655 223.266665,1 223.6,1 L265.8,1 C266.133335,1 266.416666,1.1166655 266.65,1.35 C266.883334,1.5833345 267,1.866665 267,2.2 L267,4.5 Z M301.1,71.9 C296.566644,71.9 292.566684,71.000009 289.1,69.2 C285.633316,67.399991 282.950009,64.8500165 281.05,61.55 C279.149991,58.2499835 278.2,54.466688 278.2,50.2 L278.2,21.7 C278.2,17.433312 279.149991,13.6833495 281.05,10.45 C282.950009,7.2166505 285.633316,4.700009 289.1,2.9 C292.566684,1.099991 296.566644,0.2 301.1,0.2 C305.566689,0.2 309.533316,1.0833245 313,2.85 C316.466684,4.6166755 319.149991,7.099984 321.05,10.3 C322.95001,13.500016 323.9,17.199979 323.9,21.4 C323.9,21.733335 323.783335,22.0166655 323.55,22.25 C323.316665,22.4833345 323.033335,22.6 322.7,22.6 L319.8,22.7 C318.999996,22.7 318.6,22.500002 318.6,22.1 L318.6,21.5 C318.6,16.499975 317.000016,12.4833485 313.8,9.45 C310.599984,6.4166515 306.366693,4.9 301.1,4.9 C295.76664,4.9 291.500016,6.4166515 288.3,9.45 C285.099984,12.4833485 283.5,16.499975 283.5,21.5 L283.5,50.5 C283.5,55.500025 285.11665,59.533318 288.35,62.6 C291.583349,65.666682 295.833307,67.2 301.1,67.2 C306.366693,67.2 310.599984,65.666682 313.8,62.6 C317.000016,59.533318 318.6,55.500025 318.6,50.5 C318.6,49.766663 318.999996,49.4 319.8,49.4 L322.7,49.5 C323.500004,49.5 323.9,49.666665 323.9,50 L323.9,50.5 C323.9,54.700021 322.95001,58.4166505 321.05,61.65 C319.149991,64.8833495 316.466684,67.399991 313,69.2 C309.533316,71.000009 305.566689,71.9 301.1,71.9 Z M339.4,71 C339.066665,71 338.783335,70.8833345 338.55,70.65 C338.316665,70.4166655 338.2,70.133335 338.2,69.8 L338.2,2.2 C338.2,1.866665 338.316665,1.5833345 338.55,1.35 C338.783335,1.1166655 339.066665,1 339.4,1 L342.3,1 C342.633335,1 342.916666,1.1166655 343.15,1.35 C343.383334,1.5833345 343.5,1.866665 343.5,2.2 L343.5,69.8 C343.5,70.133335 343.383334,70.4166655 343.15,70.65 C342.916666,70.8833345 342.633335,71 342.3,71 L339.4,71 Z M387,0.8 C392.666695,0.8 397.233316,2.5499825 400.7,6.05 C404.166684,9.5500175 405.9,14.166638 405.9,19.9 C405.9,25.566695 404.150017,30.133316 400.65,33.6 C397.149982,37.066684 392.533362,38.8 386.8,38.8 L366,38.8 C365.733332,38.8 365.6,38.933332 365.6,39.2 L365.6,69.8 C365.6,70.133335 365.483334,70.4166655 365.25,70.65 C365.016666,70.8833345 364.733335,71 364.4,71 L361.5,71 C361.166665,71 360.883334,70.8833345 360.65,70.65 C360.416666,70.4166655 360.3,70.133335 360.3,69.8 L360.3,2 C360.3,1.666665 360.416666,1.3833345 360.65,1.15 C360.883334,0.9166655 361.166665,0.8 361.5,0.8 L387,0.8 Z M386.6,34.3 C390.800021,34.3 394.183321,32.9833465 396.75,30.35 C399.316679,27.7166535 400.6,24.266688 400.6,20 C400.6,15.666645 399.316679,12.1833465 396.75,9.55 C394.183321,6.9166535 390.800021,5.6 386.6,5.6 L366,5.6 C365.733332,5.6 365.6,5.733332 365.6,6 L365.6,33.9 C365.6,34.166668 365.733332,34.3 366,34.3 L386.6,34.3 Z M461.6,4.5 C461.6,4.833335 461.483334,5.1166655 461.25,5.35 C461.016666,5.5833345 460.733335,5.7 460.4,5.7 L422.7,5.7 C422.433332,5.7 422.3,5.833332 422.3,6.1 L422.3,33.1 C422.3,33.366668 422.433332,33.5 422.7,33.5 L449.4,33.5 C449.733335,33.5 450.016666,33.6166655 450.25,33.85 C450.483334,34.0833345 450.6,34.366665 450.6,34.7 L450.6,37 C450.6,37.333335 450.483334,37.6166655 450.25,37.85 C450.016666,38.0833345 449.733335,38.2 449.4,38.2 L422.7,38.2 C422.433332,38.2 422.3,38.333332 422.3,38.6 L422.3,65.9 C422.3,66.166668 422.433332,66.3 422.7,66.3 L460.4,66.3 C460.733335,66.3 461.016666,66.4166655 461.25,66.65 C461.483334,66.8833345 461.6,67.166665 461.6,67.5 L461.6,69.8 C461.6,70.133335 461.483334,70.4166655 461.25,70.65 C461.016666,70.8833345 460.733335,71 460.4,71 L418.2,71 C417.866665,71 417.583334,70.8833345 417.35,70.65 C417.116665,70.4166655 417,70.133335 417,69.8 L417,2.2 C417,1.866665 417.116665,1.5833345 417.35,1.35 C417.583334,1.1166655 417.866665,1 418.2,1 L460.4,1 C460.733335,1 461.016666,1.1166655 461.25,1.35 C461.483334,1.5833345 461.6,1.866665 461.6,2.2 L461.6,4.5 Z M215.533,124.786 C215.274999,124.872 215.146,125.022499 215.146,125.2375 C215.146,125.452501 215.274999,125.645999 215.533,125.818 C223.61704,129.86002 227.659,136.825951 227.659,146.716 C227.659,155.058042 224.821028,161.357479 219.145,165.6145 C213.468972,169.871521 206.030046,172 196.828,172 L164.062,172 C162.599993,172 161.869,171.269007 161.869,169.807 L161.869,83.893 C161.869,82.4309927 162.599993,81.7 164.062,81.7 L195.796,81.7 C216.178102,81.7 226.369,89.9559174 226.369,106.468 C226.369,115.154043 222.757036,121.259982 215.533,124.786 Z M180.832,97.309 C180.315997,97.309 180.058,97.5669974 180.058,98.083 L180.058,117.949 C180.058,118.465003 180.315997,118.723 180.832,118.723 L195.796,118.723 C199.83802,118.723 202.976989,117.777009 205.213,115.885 C207.449011,113.992991 208.567,111.413016 208.567,108.145 C208.567,104.790983 207.449011,102.14651 205.213,100.2115 C202.976989,98.2764903 199.83802,97.309 195.796,97.309 L180.832,97.309 Z M196.828,156.262 C200.78402,156.262 203.879989,155.25151 206.116,153.2305 C208.352011,151.20949 209.47,148.436018 209.47,144.91 C209.47,141.383982 208.352011,138.61051 206.116,136.5895 C203.879989,134.56849 200.74102,133.558 196.699,133.558 L180.832,133.558 C180.315997,133.558 180.058,133.815997 180.058,134.332 L180.058,155.488 C180.058,156.004003 180.315997,156.262 180.832,156.262 L196.828,156.262 Z M270.841,173.419 C264.132966,173.419 258.220526,172.043014 253.1035,169.291 C247.986474,166.538986 244.009014,162.690525 241.171,157.7455 C238.332986,152.800475 236.914,147.103032 236.914,140.653 L236.914,113.047 C236.914,106.682968 238.332986,101.050025 241.171,96.148 C244.009014,91.2459755 247.986474,87.4405135 253.1035,84.7315 C258.220526,82.0224865 264.132966,80.668 270.841,80.668 C277.635034,80.668 283.590474,82.0224865 288.7075,84.7315 C293.824526,87.4405135 297.801986,91.2459755 300.64,96.148 C303.478014,101.050025 304.897,106.682968 304.897,113.047 L304.897,140.653 C304.897,147.103032 303.478014,152.821975 300.64,157.81 C297.801986,162.798025 293.824526,166.646486 288.7075,169.3555 C283.590474,172.064514 277.635034,173.419 270.841,173.419 Z M270.841,157.81 C275.571024,157.81 279.397985,156.305015 282.322,153.295 C285.246015,150.284985 286.708,146.286025 286.708,141.298 L286.708,112.918 C286.708,107.929975 285.267514,103.909515 282.3865,100.8565 C279.505486,97.8034847 275.657024,96.277 270.841,96.277 C266.110976,96.277 262.305514,97.8034847 259.4245,100.8565 C256.543486,103.909515 255.103,107.929975 255.103,112.918 L255.103,141.298 C255.103,146.286025 256.543486,150.284985 259.4245,153.295 C262.305514,156.305015 266.110976,157.81 270.841,157.81 Z M347.95,173.419 C341.241966,173.419 335.329526,172.043014 330.2125,169.291 C325.095474,166.538986 321.118014,162.690525 318.28,157.7455 C315.441986,152.800475 314.023,147.103032 314.023,140.653 L314.023,113.047 C314.023,106.682968 315.441986,101.050025 318.28,96.148 C321.118014,91.2459755 325.095474,87.4405135 330.2125,84.7315 C335.329526,82.0224865 341.241966,80.668 347.95,80.668 C354.744034,80.668 360.699474,82.0224865 365.8165,84.7315 C370.933526,87.4405135 374.910986,91.2459755 377.749,96.148 C380.587014,101.050025 382.006,106.682968 382.006,113.047 L382.006,140.653 C382.006,147.103032 380.587014,152.821975 377.749,157.81 C374.910986,162.798025 370.933526,166.646486 365.8165,169.3555 C360.699474,172.064514 354.744034,173.419 347.95,173.419 Z M347.95,157.81 C352.680024,157.81 356.506985,156.305015 359.431,153.295 C362.355015,150.284985 363.817,146.286025 363.817,141.298 L363.817,112.918 C363.817,107.929975 362.376514,103.909515 359.4955,100.8565 C356.614486,97.8034847 352.766024,96.277 347.95,96.277 C343.219976,96.277 339.414514,97.8034847 336.5335,100.8565 C333.652486,103.909515 332.212,107.929975 332.212,112.918 L332.212,141.298 C332.212,146.286025 333.652486,150.284985 336.5335,153.295 C339.414514,156.305015 343.219976,157.81 347.95,157.81 Z M395.131,172 C393.668993,172 392.938,171.269007 392.938,169.807 L392.938,83.893 C392.938,82.4309927 393.668993,81.7 395.131,81.7 L408.934,81.7 C410.396007,81.7 411.127,82.4309927 411.127,83.893 L411.127,119.11 C411.127,119.454002 411.234499,119.669 411.4495,119.755 C411.664501,119.841 411.857999,119.755001 412.03,119.497 L441.442,82.99 C442.044003,82.1299957 442.946994,81.7 444.151,81.7 L459.76,81.7 C460.362003,81.7 460.834998,81.8074989 461.179,82.0225 C461.523002,82.2375011 461.695,82.5599978 461.695,82.99 C461.695,83.3340017 461.480002,83.806997 461.05,84.409 L432.928,120.271 C432.669999,120.529001 432.669999,120.872998 432.928,121.303 L462.727,169.42 C462.985001,169.764002 463.114,170.150998 463.114,170.581 C463.114,171.527005 462.512006,172 461.308,172 L445.699,172 C444.580994,172 443.721003,171.527005 443.119,170.581 L420.544,133.945 C420.458,133.686999 420.286001,133.558 420.028,133.558 C419.769999,133.558 419.555001,133.686999 419.383,133.945 L411.514,144.007 C411.255999,144.351002 411.127,144.651999 411.127,144.91 L411.127,169.807 C411.127,171.269007 410.396007,172 408.934,172 L395.131,172 Z" id="RECIPE-BOOK"></path>
            <g id="Group-5" transform="translate(0.000000, 1.000000)">
                <path d="M28.1408982,152 L13.8591018,152 C12.2789167,152 11,153.11824 11,154.499999 C11,155.88176 12.2788653,157 13.8591018,157 L28.1408982,157 C29.7210833,157 31,155.88176 31,154.499999 C31,153.11824 29.7211347,152 28.1408982,152" id="Fill-1"></path>
                <path d="M111.145867,152 L39.8541333,152 C38.2766942,152 37,153.11824 37,154.499999 C37,155.88176 38.2766429,157 39.8541333,157 L111.145867,157 C112.723306,157 114,155.88176 114,154.499999 C114,153.11824 112.723357,152 111.145867,152" id="Fill-2"></path>
                <path d="M38.3461685,59.4427976 C39.1163058,59.9844634 39.5716814,60.8714432 39.5716814,61.812607 L39.5716814,74 L102.427993,74 L102.427993,61.812607 C102.427993,60.8714605 102.883368,59.9844634 103.653506,59.4427976 C107.202803,56.9376151 111,52.611049 111,48.0000433 C111,40.2948695 104.805403,34.0318266 97.1911212,34.0318266 C94.3315225,34.0318266 91.5792445,34.9188065 89.2353336,36.5980223 C88.4049184,37.1938547 87.3200196,37.2954105 86.3959646,36.8688552 C85.4718068,36.4490599 84.8423008,35.5553201 84.7418548,34.5328458 C84.0252921,27.3828577 78.1186607,22 71.0000086,22 C63.8813564,22 57.974605,27.3828577 57.2648485,34.5328458 C57.1576992,35.5552334 56.5281932,36.4490426 55.6040354,36.8688552 C54.6798775,37.2954105 53.5949444,37.1938547 52.7713525,36.5980223 C50.4207555,34.9188585 47.668306,34.0318266 44.8088788,34.0318266 C37.1945971,34.0318266 31,40.2948695 31,48.0000433 C31,52.611049 34.7970259,56.9374418 38.3464943,59.4427976" id="Fill-3"></path>
                <path d="M137.27442,164.104731 C137.27442,164.759334 136.738188,165.300393 136.0746,165.300393 L17.1581742,165.300393 C10.8507184,165.300393 5.72297201,160.183751 5.72297201,153.898158 C5.72297201,147.612562 10.8507184,142.49592 17.1581742,142.49592 L137.27442,142.49592 L137.27442,164.104731 Z M45.2845402,28.975937 C47.9322371,28.975937 50.5128408,29.5036238 52.9124126,30.5256183 C55.4729397,22.6435757 62.8528587,17.0994359 71.4994852,17.0994359 C80.1461118,17.0994359 87.5260307,22.6435757 90.0865578,30.5256183 C92.4861297,29.5036238 95.0667333,28.975937 97.7144302,28.975937 C108.492599,28.975937 117.260714,37.7129761 117.260714,48.4476293 C117.260714,53.784689 114.076785,59.3354978 108.681009,63.5236131 L108.681009,76.9497955 C108.681009,78.526204 107.400763,79.8020641 105.818819,79.8020641 L37.1811806,79.8020641 C35.5992889,79.8020641 34.318991,78.5262553 34.318991,76.9497955 L34.318991,63.5236131 C28.9232146,59.3354978 25.7392862,53.784689 25.7392862,48.4476293 C25.7392862,37.7134891 34.506715,28.975937 45.2855698,28.975937 L45.2845402,28.975937 Z M51.4780576,105.451962 C51.4780576,103.875553 52.758304,102.599693 54.3402471,102.599693 L88.6590665,102.599693 C90.2409582,102.599693 91.5212561,103.875502 91.5212561,105.451962 C91.5212561,107.021684 90.2410097,108.297561 88.6590665,108.297561 L54.3402471,108.297561 C52.7583554,108.297561 51.4780576,107.021753 51.4780576,105.451962 Z M100.100961,114.001928 C101.676143,114.001928 102.956458,115.277736 102.956458,116.847527 C102.956458,118.423936 101.676212,119.699796 100.100961,119.699796 L42.8983527,119.699796 C41.3231704,119.699796 40.0428553,118.423987 40.0428553,116.847527 C40.0428553,115.277805 41.3231017,114.001928 42.8983527,114.001928 L100.100961,114.001928 Z M130.706484,0.000102599591 L128.695573,0.000102599591 L128.695573,136.799557 L122.978058,136.799557 L122.978058,0.000102599591 L20.0215993,0.000102599591 L20.0215993,136.799557 L17.1594097,136.799557 C16.1874836,136.799557 15.2356683,136.899745 14.3039123,137.053388 L14.3039123,0.000854996588 L11.1603085,0.000854996588 C5.00711576,0.000854996588 0,4.99061508 0,11.1224796 L0,153.900068 C0,163.331706 7.69496569,171 17.1594097,171 L136.075835,171 C139.896549,171 143,167.907306 143,164.106675 L143,12.2438931 C143,5.49745706 137.483593,0 130.706827,0 L130.706484,0.000102599591 Z" id="Fill-4"></path>
            </g>
        </g>
    </g>
</svg>
