<svg xmlns="http://www.w3.org/2000/svg" xmlns:xlink="http://www.w3.org/1999/xlink" version="1.1" x="0px" y="0px" viewBox="0 0 100 100" enable-background="new 0 0 100 100" xml:space="preserve"><path d="M75.5,46.8c0.2-2.7,0.5-7.6,0.5-7.6L77,18.7c0-0.8-0.6-1.5-1.4-1.6c-1.7-0.1-4.5,0.3-6.6,2L67.6,6.3c0-0.4-0.2-0.8-0.6-1  C66.7,5.1,66.3,5,65.9,5c-2.9,0.3-8.4,2.7-8,9.1c0,0.2,0,0.5,0,0.9l-5.7-9.2c-0.2-0.4-0.6-0.6-1.1-0.7C50.7,5,50.3,5.2,50,5.5  c-0.3,0.2-6.2,5.8-4,11.7c0.8,2.2,3.8,7.9,4,8.2c0,0,0,0.1,0.1,0.1l4.1,6.6c-3.9-0.7-14.6,0.1-16.8,1.9c-1.9,1.6-7.3,7.6-7.5,7.9  c-0.1,0.1-0.2,0.3-0.3,0.4c-0.4-0.2-0.8-0.4-1.2-0.6c-0.5-0.2-1-0.2-1.5,0C26.2,42,25.2,42.5,23,56c0,0.1,0,0.2,0,0.3  c0,0.3,0.2,6.7,8.1,14.7c6.9,7,13.1,18.5,15.4,23.2c0.3,0.5,0.8,0.8,1.3,0.8c0.2,0,0.5-0.1,0.7-0.2c0.7-0.4,1-1.3,0.7-2  c-3-5.9-9-16.9-16-23.9c-6.4-6.5-7.2-11.8-7.3-12.6c0.7-4.3,1.7-9.2,2.3-11.4c4.1,2.2,4,3.9,3.8,6.4c-0.1,2.3-0.3,5.2,2.8,8.5  c4.9,5.1,9.5,7.6,9.6,7.7c0.4,0.2,0.9,0.2,1.4,0l10.5-5c0.4-0.2,0.7-0.5,0.8-0.9l2-7.1c0.1-0.3,0.1-0.7-0.1-1l-4.3-9.3  c-0.1-0.2-0.2-0.3-0.3-0.4c-2.6-2.5-9.1-5.7-15.8-0.1c-0.9,0.7-1.7,1-2.6,0.9c-1.2-0.2-2.3-1-3.1-1.8c1.9-2.1,5.1-5.6,6.3-6.6  c1-0.8,11.4-2,14.4-1.3c0.9,0.8,3.5,3.5,6.2,6.3c0,0,0.1,0.1,0.1,0.1c1.7,1.8,3.4,3.6,4.8,5.2c0.6,0.6,1.5,0.6,2.1,0.1  c0.6-0.6,0.6-1.5,0.1-2.1c-0.5-0.5-2.5-2.7-4.8-5.2l-9.6-15.5c-0.3-0.5-3.1-5.9-3.8-7.8c-1-2.6,0.7-5.5,2-7.1l9.7,15.7  c0,0,0,0.1,0.1,0.1c2.6,3.6,5.5,7.7,5.8,8.4c0.2,0.4,0.8,1.8,1.6,3.5c0,0,0,0,0,0.1c0,0,0,0.1,0.1,0.1c1.4,2.9,3.4,7.3,3.8,8.3  c0.7,1.9,2,6.8,2.2,10.2c0,0.9-0.5,4.2-1,7.6c-1.5,10-3.9,25.2-1.4,31.1c0.2,0.6,0.8,0.9,1.4,0.9c0.2,0,0.4,0,0.6-0.1  c0.8-0.3,1.1-1.2,0.8-2c-2.2-5.1,0.2-20.4,1.6-29.5c0.7-4.6,1.1-7.1,1-8.2C76.9,52.5,76.1,49.2,75.5,46.8z M35.7,47.6  c1.8,0.2,3.4-0.3,5-1.6c5.6-4.7,10.6-1,11.6-0.2l4,8.5l-1.7,5.9l-9.2,4.4c-1.4-0.8-4.7-3.1-8.3-6.8c-2.2-2.3-2.1-4.1-1.9-6.2  c0.1-1.5,0.1-2.8-0.3-4.1C35.1,47.5,35.4,47.6,35.7,47.6z M62.9,23.1l-1.8-2.9c-0.1-2-0.2-4.8-0.3-6.2c-0.2-3.6,2.2-5.1,3.9-5.6  l1.7,15.1c0,0.1,0,0.1,0,0.2l0.4,3.5c0,0,0.1,0.8,0.2,1.9C65.6,26.8,63.8,24.3,62.9,23.1z M70.8,35.7c-0.2-1.8-0.8-8.6-0.9-8.9  l-0.4-3.3c0.8-2.4,3-3.1,4.4-3.3L73,39c0,0,0,0.5-0.1,1.3C72.3,38.9,71.5,37.3,70.8,35.7z"></path></svg>