<?xml version="1.0" encoding="utf-8"?>
<!-- Generator: Adobe Illustrator 26.0.2, SVG Export Plug-In . SVG Version: 6.00 Build 0)  -->
<svg version="1.1" id="Layer_1" xmlns="http://www.w3.org/2000/svg" xmlns:xlink="http://www.w3.org/1999/xlink" x="0px" y="0px"
	 viewBox="0 0 64 100" style="enable-background:new 0 0 64 100;" xml:space="preserve">
<g id="status-tweak" transform="translate(27.000000, 8.000000)">
	<path id="Shape" d="M27.4,42.5c0-0.2,0-0.4-0.1-0.6l-3-6.5v-29c0-3.6-2.9-6.4-6.4-6.4s-6.4,2.9-6.4,6.4v20.4c-1-0.6-2.2-1-3.4-1
		c-3,0-5.6,2.1-6.2,4.9c-1-0.7-2.3-1.1-3.6-1.1c-3,0-5.6,2.1-6.2,4.9c-1-0.7-2.3-1.1-3.6-1.1c-3.6,0-6.4,2.9-6.4,6.4v15.4
		c0,0.2,0,0.4,0,0.6v0.6c0,13,2.2,18.6,3.8,22.7c0.9,2.3,1.6,4,1.6,6.4c0,0.8,0.7,1.5,1.5,1.5s1.5-0.7,1.5-1.5c0-3-0.8-5.1-1.8-7.5
		c-1.3-3.4-3.1-7.9-3.5-17.2c1,0.6,2.1,0.9,3.3,0.9c3,0,5.6-2.1,6.2-4.9c1,0.7,2.3,1.1,3.6,1.1c3,0,5.6-2.1,6.2-4.9
		c1,0.7,2.3,1.1,3.6,1.1c2.9,0,5.4-2,6.2-4.7v4.8C6.9,55.2,4,66.3,3.9,66.8c-0.2,0.8,0.3,1.6,1.1,1.8c0.8,0.2,1.6-0.3,1.8-1.1
		c0.8-2.9,3.8-10.4,8.6-10.4h0.4c0.8,0,1.5-0.7,1.5-1.5v-7.7c0-0.2,0-0.3-0.1-0.5c-3.6-10-3.2-14.8,1.4-17.4l5.8,12.9v13.4
		c0,12.3-2.8,17.6-4.8,21.4c-1.3,2.5-2.5,4.6-2.5,7.7c0,0.8,0.7,1.5,1.5,1.5s1.5-0.7,1.5-1.5c0-2.3,0.9-4,2.1-6.3
		c2.2-4.1,5.2-9.8,5.2-22.8V42.5z M-8.1,55.1c0,1.9-1.5,3.4-3.4,3.4c-1.8,0-3.3-1.4-3.4-3.1v-0.3c0-0.1,0-0.2,0-0.3V39.7
		c0-1.9,1.5-3.4,3.4-3.4s3.4,1.5,3.4,3.4v11.6C-8.1,51.3-8.1,55.1-8.1,55.1z M1.7,51.3c0,1.9-1.5,3.4-3.4,3.4s-3.5-1.5-3.5-3.4V39.7
		v-3.8c0-1.9,1.5-3.4,3.4-3.4s3.4,1.5,3.4,3.4v11.6L1.7,51.3L1.7,51.3z M11.5,47.6c0,1.9-1.5,3.4-3.4,3.4s-3.4-1.5-3.4-3.4V35.9
		v-3.8c0-1.9,1.5-3.4,3.4-3.4s3.4,1.5,3.4,3.4v12V47.6z M18.7,26.6c-1.8,0.7-3.2,1.7-4.2,2.8v-23C14.5,4.5,16,3,17.9,3
		s3.4,1.5,3.4,3.4v22.5l-0.6-1.6C20.3,26.6,19.5,26.3,18.7,26.6z"/>
</g>
<g id="status-proven" transform="translate(23.000000, 5.000000)">
	<path id="Shape_00000105396386645761455380000006033454502920144027_" d="M34.2,41.8c0.2-2.7,0.5-7.6,0.5-7.6l1-20.5
		c0-0.8-0.6-1.5-1.4-1.6c-1.7-0.1-4.5,0.3-6.6,2L26.3,1.3c0-0.4-0.2-0.8-0.6-1C25.4,0.1,25,0,24.6,0c-2.9,0.3-8.4,2.7-8,9.1
		c0,0.2,0,0.5,0,0.9l-5.7-9.2c-0.2-0.4-0.6-0.6-1.1-0.7C9.4,0,9,0.2,8.7,0.5c-0.3,0.2-6.2,5.8-4,11.7c0.8,2.2,3.8,7.9,4,8.2
		c0,0,0,0.1,0.1,0.1l4.1,6.6C9,26.4-1.7,27.2-3.9,29c-1.9,1.6-7.3,7.6-7.5,7.9c-0.1,0.1-0.2,0.3-0.3,0.4c-0.4-0.2-0.8-0.4-1.2-0.6
		c-0.5-0.2-1-0.2-1.5,0c-0.7,0.3-1.7,0.8-3.9,14.3c0,0.1,0,0.2,0,0.3c0,0.3,0.2,6.7,8.1,14.7c6.9,7,13.1,18.5,15.4,23.2
		C5.5,89.7,6,90,6.5,90c0.2,0,0.5-0.1,0.7-0.2c0.7-0.4,1-1.3,0.7-2c-3-5.9-9-16.9-16-23.9c-6.4-6.5-7.2-11.8-7.3-12.6
		c0.7-4.3,1.7-9.2,2.3-11.4c4.1,2.2,4,3.9,3.8,6.4c-0.1,2.3-0.3,5.2,2.8,8.5c4.9,5.1,9.5,7.6,9.6,7.7c0.4,0.2,0.9,0.2,1.4,0l10.5-5
		c0.4-0.2,0.7-0.5,0.8-0.9l2-7.1c0.1-0.3,0.1-0.7-0.1-1l-4.3-9.3c-0.1-0.2-0.2-0.3-0.3-0.4c-2.6-2.5-9.1-5.7-15.8-0.1
		c-0.9,0.7-1.7,1-2.6,0.9c-1.2-0.2-2.3-1-3.1-1.8c1.9-2.1,5.1-5.6,6.3-6.6c1-0.8,11.4-2,14.4-1.3c0.9,0.8,3.5,3.5,6.2,6.3l0.1,0.1
		c1.7,1.8,3.4,3.6,4.8,5.2c0.6,0.6,1.5,0.6,2.1,0.1c0.6-0.6,0.6-1.5,0.1-2.1c-0.5-0.5-2.5-2.7-4.8-5.2l-9.6-15.5
		c-0.3-0.5-3.1-5.9-3.8-7.8c-1-2.6,0.7-5.5,2-7.1l9.7,15.7c0,0,0,0.1,0.1,0.1c2.6,3.6,5.5,7.7,5.8,8.4c0.2,0.4,0.8,1.8,1.6,3.5
		c0,0,0,0,0,0.1c0,0,0,0.1,0.1,0.1c1.4,2.9,3.4,7.3,3.8,8.3c0.7,1.9,2,6.8,2.2,10.2c0,0.9-0.5,4.2-1,7.6c-1.5,10-3.9,25.2-1.4,31.1
		c0.2,0.6,0.8,0.9,1.4,0.9c0.2,0,0.4,0,0.6-0.1c0.8-0.3,1.1-1.2,0.8-2c-2.2-5.1,0.2-20.4,1.6-29.5c0.7-4.6,1.1-7.1,1-8.2
		C35.6,47.5,34.8,44.2,34.2,41.8z M-5.6,42.6c1.8,0.2,3.4-0.3,5-1.6C5,36.3,10,40,11,40.8l4,8.5l-1.7,5.9l-9.2,4.4
		c-1.4-0.8-4.7-3.1-8.3-6.8c-2.2-2.3-2.1-4.1-1.9-6.2c0.1-1.5,0.1-2.8-0.3-4.1C-6.2,42.5-5.9,42.6-5.6,42.6z M21.6,18.1l-1.8-2.9
		c-0.1-2-0.2-4.8-0.3-6.2c-0.2-3.6,2.2-5.1,3.9-5.6l1.7,15.1c0,0.1,0,0.1,0,0.2l0.4,3.5c0,0,0.1,0.8,0.2,1.9
		C24.3,21.8,22.5,19.3,21.6,18.1z M29.5,30.7c-0.2-1.8-0.8-8.6-0.9-8.9l-0.4-3.3c0.8-2.4,3-3.1,4.4-3.3L31.7,34c0,0,0,0.5-0.1,1.3
		C31,33.9,30.2,32.3,29.5,30.7z"/>
</g>
<g id="status-untested" transform="translate(27.000000, 8.000000)">
	<path id="Shape_00000034798848617586340720000008338602102217111438_" d="M27.1,50.6c0-0.1,0-0.1-0.1-0.2L26,48l-5.6-24.6l5.5-14.8
		c0.6-1.6,0.5-3.4-0.2-4.9c-0.7-1.6-2-2.7-3.6-3.3s-3.4-0.5-5,0.2S14.5,2.5,13.9,4c-1.4-0.7-3-1-4.5-0.6C7.6,3.8,6.2,4.8,5.3,6.3
		s-1.2,3.2-0.8,4.9l2.3,10.9l-3.5,9.5c-1.2-1.4-3-2.4-5.1-2.4c-3,0-5.7,2.1-6.3,4.9c-1-0.7-2.3-1.1-3.6-1.1c-3.6,0-6.5,2.9-6.5,6.4
		v16.7c0,13,2.2,18.7,3.8,22.8c0.9,2.3,1.6,4,1.6,6.4c0,0.8,0.7,1.5,1.5,1.5s1.5-0.7,1.5-1.5c0-3-0.8-5.1-1.8-7.5
		c-1.3-3.4-3.1-7.9-3.5-17.3c1,0.6,2.1,0.9,3.3,0.9c3,0,5.7-2.1,6.3-4.9c1,0.7,2.3,1.1,3.6,1.1c3.6,0,6.5-2.9,6.5-6.4v-8.5
		c1.8,2.6,5,4,7.8,5.2l2.2,6.9C7.1,56.4,4,66.2,3.9,66.6c-0.2,0.8,0.2,1.6,1,1.9c0.8,0.2,1.6-0.2,1.9-1c0-0.1,3-9.8,9.9-9.8
		c0.5,0,0.9-0.2,1.2-0.6c0.3-0.4,0.4-0.9,0.2-1.3l-3-9.3c-0.1-0.4-0.4-0.8-0.8-0.9C8,42.9,5.1,41,6.7,35.5l4.1,1.6l0,0l5.5,2.2
		c1.4,0.6,2.5,1.4,3.4,2.8l4.4,9.6c0.5,1.7,0.5,2.4,0.5,4.4v0.2c-0.2,10.6-2.7,16.3-4.8,20.8c-1.3,2.9-2.4,5.4-2.4,8.4
		c0,0.8,0.7,1.5,1.5,1.5s1.5-0.7,1.5-1.5c0-2.4,0.9-4.4,2.1-7.2c2-4.5,4.8-10.6,5.2-22V56C27.8,53.8,27.8,52.8,27.1,50.6z M18.2,3.3
		C19,2.9,20,2.9,20.8,3.2c0.9,0.3,1.6,0.9,1.9,1.8s0.4,1.8,0.1,2.6L19,18l-2.2-9.7c-0.2-0.7-0.5-1.4-0.9-2l0.3-0.9
		C16.7,4.3,17.4,3.7,18.2,3.3z M-8.3,55.1c0,1.9-1.5,3.4-3.4,3.4c-1.8,0-3.3-1.4-3.4-3.1v-0.3c0-0.1,0-0.2,0-0.3V39.6
		c0-1.9,1.5-3.4,3.4-3.4s3.4,1.5,3.4,3.4v11.6C-8.3,51.2-8.3,55.1-8.3,55.1z M1.7,51.3c0,1.9-1.5,3.4-3.4,3.4s-3.4-1.5-3.4-3.4V39.6
		v-3.8c0-1.9,1.5-3.4,3.4-3.4s3.4,1.5,3.4,3.4V51.3z M6.4,31.9L8,27.5L9.3,33L6.4,31.9z M17.5,36.3l-4.8-1.9l-5.6-24
		C7,9.5,7.1,8.6,7.6,7.8s1.3-1.3,2.1-1.5c0.9-0.2,1.9-0.1,2.7,0.4s1.3,1.3,1.5,2.1l6.7,29.5C19.7,37.4,18.7,36.8,17.5,36.3z"/>
</g>
</svg>
