<?xml version="1.0" encoding="UTF-8"?>
<svg width="100px" height="100px" viewBox="0 0 100 100" version="1.1" xmlns="http://www.w3.org/2000/svg" xmlns:xlink="http://www.w3.org/1999/xlink">
    <title>Artboard</title>
    <g id="Artboard" stroke="none" stroke-width="1" fill="none" fill-rule="evenodd">
        <g id="status-tweak" transform="translate(27.000000, 8.000000)" fill="#000000" fill-rule="nonzero">
            <path d="M45,42.5 C45,42.3 45,42.1 44.9006623,41.9 L41.9205298,35.4 L41.9205298,6.4 C41.9205298,2.8 39.0397351,0 35.5629139,0 C32.0860927,0 29.205298,2.9 29.205298,6.4 L29.205298,26.8 C28.2119205,26.2 27.0198675,25.8 25.8278146,25.8 C22.8476821,25.8 20.2649007,27.9 19.6688742,30.7 C18.6754967,30 17.384106,29.6 16.0927152,29.6 C13.1125828,29.6 10.5298013,31.7 9.93377483,34.5 C8.94039735,33.8 7.64900662,33.4 6.35761589,33.4 C2.78145695,33.4 0,36.3 0,39.8 L0,55.2 C0,55.4 0,55.6 0,55.8 L0,56.4 C0,69.4 2.18543046,75 3.77483444,79.1 C4.66887417,81.4 5.36423841,83.1 5.36423841,85.5 C5.36423841,86.3 6.05960265,87 6.85430464,87 C7.64900662,87 8.34437086,86.3 8.34437086,85.5 C8.34437086,82.5 7.54966887,80.4 6.55629139,78 C5.26490066,74.6 3.47682119,70.1 3.0794702,60.8 C4.07284768,61.4 5.16556291,61.7 6.35761589,61.7 C9.33774834,61.7 11.9205298,59.6 12.5165563,56.8 C13.5099338,57.5 14.8013245,57.9 16.0927152,57.9 C19.0728477,57.9 21.6556291,55.8 22.2516556,53 C23.2450331,53.7 24.5364238,54.1 25.8278146,54.1 C28.7086093,54.1 31.192053,52.1 31.986755,49.4 L31.986755,54.2 C24.6357616,55.2 21.6556291,66.3 21.5562914,66.8 C21.3576159,67.6 21.8543046,68.4 22.6490066,68.6 C23.4437086,68.8 24.2384106,68.3 24.4370861,67.5 C25.2317881,64.6 28.2119205,57.1 33.0794702,57.1 L33.4768212,57.1 C34.2715232,57.1 34.9668874,56.4 34.9668874,55.6 L34.9668874,47.9 C34.9668874,47.7 34.9668874,47.6 34.8675497,47.4 C31.2913907,37.4 31.6887417,32.6 36.2582781,30 L42.0198675,42.9 L42.0198675,56.3 C42.0198675,68.6 39.2384106,73.9 37.2516556,77.7 C35.9602649,80.2 34.7682119,82.3 34.7682119,85.4 C34.7682119,86.2 35.4635762,86.9 36.2582781,86.9 C37.0529801,86.9 37.7483444,86.2 37.7483444,85.4 C37.7483444,83.1 38.6423841,81.4 39.8344371,79.1 C42.0198675,75 45,69.3 45,56.3 L45,42.5 Z M9.43708609,55.1 C9.43708609,57 7.94701987,58.5 6.05960265,58.5 C4.27152318,58.5 2.78145695,57.1 2.68211921,55.4 L2.68211921,55.1 C2.68211921,55 2.68211921,54.9 2.68211921,54.8 L2.68211921,39.7 C2.68211921,37.8 4.17218543,36.3 6.05960265,36.3 C7.94701987,36.3 9.43708609,37.8 9.43708609,39.7 L9.43708609,51.3 L9.43708609,55.1 Z M19.2715232,51.3 C19.2715232,53.2 17.781457,54.7 15.8940397,54.7 C14.0066225,54.7 12.4172185,53.2 12.4172185,51.3 L12.4172185,39.7 L12.4172185,35.9 C12.4172185,34 13.9072848,32.5 15.794702,32.5 C17.6821192,32.5 19.1721854,34 19.1721854,35.9 L19.1721854,47.5 L19.1721854,51.3 L19.2715232,51.3 Z M29.1059603,47.6 C29.1059603,49.5 27.615894,51 25.7284768,51 C23.8410596,51 22.3509934,49.5 22.3509934,47.6 L22.3509934,35.9 L22.3509934,32.1 C22.3509934,30.2 23.8410596,28.7 25.7284768,28.7 C27.615894,28.7 29.1059603,30.2 29.1059603,32.1 L29.1059603,44.1 L29.1059603,47.6 Z M36.2582781,26.6 C34.4701987,27.3 33.0794702,28.3 32.0860927,29.4 L32.0860927,6.4 C32.0860927,4.5 33.5761589,3 35.4635762,3 C37.3509934,3 38.8410596,4.5 38.8410596,6.4 L38.8410596,28.9 L38.2450331,27.3 C37.8476821,26.6 37.0529801,26.3 36.2582781,26.6 Z" id="Shape"></path>
        </g>
        <g id="status-proven" transform="translate(23.000000, 5.000000)" fill="#000000" fill-rule="nonzero">
            <path d="M52.4852203,41.8 C52.685164,39.1 52.9850795,34.2 52.9850795,34.2 L53.984798,13.7 C53.984798,12.9 53.3849669,12.2 52.5851922,12.1 C50.8856707,12 48.086459,12.4 45.9870502,14.1 L44.5874443,1.3 C44.5874443,0.9 44.3875006,0.5 43.9876132,0.3 C43.6876977,0.1 43.2878103,0 42.8879229,0 C39.9887393,0.3 34.4902876,2.7 34.890175,9.1 C34.890175,9.3 34.890175,9.6 34.890175,10 L29.1917797,0.8 C28.991836,0.4 28.5919486,0.2 28.0920893,0.1 C27.692202,0 27.2923146,0.2 26.992399,0.5 C26.6924835,0.7 20.7941444,6.3 22.9935251,12.2 C23.7932999,14.4 26.7924553,20.1 26.992399,20.4 C26.992399,20.4 26.992399,20.5 27.0923709,20.5 L31.1912166,27.1 C27.2923146,26.4 16.5953268,27.2 14.3959461,29 C12.496481,30.6 7.09800122,36.6 6.89805753,36.9 C6.79808568,37 6.69811383,37.2 6.59814198,37.3 C6.19825459,37.1 5.7983672,36.9 5.3984798,36.7 C4.89862056,36.5 4.39876132,36.5 3.89890208,36.7 C3.19909914,37 2.19938066,37.5 0,51 C0,51.1 0,51.2 0,51.3 C0,51.6 0.199943696,58 8.0977197,66 C14.9957772,73 21.1940318,84.5 23.4933843,89.2 C23.7932999,89.7 24.2931591,90 24.7930184,90 C24.9929621,90 25.2928776,89.9 25.4928213,89.8 C26.1926242,89.4 26.4925398,88.5 26.1926242,87.8 C23.1934688,81.9 17.1951579,70.9 10.1971285,63.9 C3.79893023,57.4 2.99915545,52.1 2.8991836,51.3 C3.59898654,47 4.59870502,42.1 5.19853611,39.9 C9.29738188,42.1 9.19741003,43.8 8.99746634,46.3 C8.89749449,48.6 8.69755079,51.5 11.7966781,54.8 C16.6952986,59.9 21.2940037,62.4 21.3939755,62.5 C21.7938629,62.7 22.2937221,62.7 22.7935814,62.5 L33.2906255,57.5 C33.6905128,57.3 33.9904284,57 34.0904002,56.6 L36.0898372,49.5 C36.189809,49.2 36.189809,48.8 35.9898654,48.5 L31.6910759,39.2 C31.591104,39 31.4911322,38.9 31.3911603,38.8 C28.7918923,36.3 22.2937221,33.1 15.5956083,38.7 C14.6958617,39.4 13.8960869,39.7 12.9963403,39.6 C11.7966781,39.4 10.6969878,38.6 9.89721297,37.8 C11.7966781,35.7 14.9957772,32.2 16.1954394,31.2 C17.1951579,30.4 27.5922301,29.2 30.5913855,29.9 C31.4911322,30.7 34.0904002,33.4 36.7896401,36.2 C36.7896401,36.2 36.889612,36.3 36.889612,36.3 C38.5891334,38.1 40.2886548,39.9 41.6882607,41.5 C42.2880918,42.1 43.1878384,42.1 43.7876695,41.6 C44.3875006,41 44.3875006,40.1 43.8876414,39.5 C43.3877821,39 41.3883452,36.8 39.0889926,34.3 L29.4916952,18.8 C29.1917797,18.3 26.3925679,12.9 25.692765,11 C24.6930465,8.4 26.3925679,5.5 27.692202,3.9 L37.3894712,19.6 C37.3894712,19.6 37.3894712,19.7 37.4894431,19.7 C40.0887111,23.3 42.9878947,27.4 43.2878103,28.1 C43.487754,28.5 44.0875851,29.9 44.8873598,31.6 C44.8873598,31.6 44.8873598,31.6 44.8873598,31.7 C44.8873598,31.7 44.8873598,31.8 44.9873317,31.8 C46.3869376,34.7 48.3863745,39.1 48.7862619,40.1 C49.4860649,42 50.7856989,46.9 50.9856426,50.3 C50.9856426,51.2 50.4857833,54.5 49.9859241,57.9 C48.4863464,67.9 46.087022,83.1 48.5863182,89 C48.7862619,89.6 49.386093,89.9 49.9859241,89.9 C50.1858678,89.9 50.3858115,89.9 50.5857552,89.8 C51.38553,89.5 51.6854455,88.6 51.38553,87.8 C49.1861493,82.7 51.5854737,67.4 52.9850795,58.3 C53.6848825,53.7 54.0847699,51.2 53.984798,50.1 C53.8848262,47.5 53.0850514,44.2 52.4852203,41.8 Z M12.6964247,42.6 C14.495918,42.8 16.0954676,42.3 17.6950171,41 C23.2934406,36.3 28.292033,40 29.2917515,40.8 L33.2906255,49.3 L31.591104,55.2 L22.393694,59.6 C20.9940881,58.8 17.6950171,56.5 14.0960306,52.8 C11.8966499,50.5 11.9966218,48.7 12.1965655,46.6 C12.2965373,45.1 12.2965373,43.8 11.8966499,42.5 C12.0965936,42.5 12.3965092,42.6 12.6964247,42.6 Z M39.8887674,18.1 L38.0892742,15.2 C37.9893023,13.2 37.8893305,10.4 37.7893586,9 C37.5894149,5.4 39.9887393,3.9 41.6882607,3.4 L43.3877821,18.5 C43.3877821,18.6 43.3877821,18.6 43.3877821,18.7 L43.7876695,22.2 C43.7876695,22.2 43.8876414,23 43.9876132,24.1 C42.5880073,21.8 40.7885141,19.3 39.8887674,18.1 Z M47.7865434,30.7 C47.5865997,28.9 46.9867687,22.1 46.8867968,21.8 L46.4869094,18.5 C47.2866842,16.1 49.4860649,15.4 50.8856707,15.2 L49.9859241,34 C49.9859241,34 49.9859241,34.5 49.8859523,35.3 C49.2861212,33.9 48.4863464,32.3 47.7865434,30.7 Z" id="Shape"></path>
        </g>
        <g id="status-untested" transform="translate(27.000000, 8.000000)" fill="#000000" fill-rule="nonzero">
            <path d="M45.2923077,50.5718614 C45.2923077,50.4715084 45.2923077,50.4715084 45.1912088,50.3711554 L44.1802198,47.9626835 L38.6197802,23.3761988 L44.0791209,8.62430793 C44.6857143,7.01865994 44.5846154,5.21230597 43.8769231,3.70701098 C43.1692308,2.101363 41.8549451,0.997480016 40.2373626,0.395362023 C38.6197802,-0.20675597 36.8,-0.106402971 35.2835165,0.596068021 C33.767033,1.29853901 32.6549451,2.502775 32.0483516,4.00806998 C30.632967,3.30559899 29.0153846,3.00453999 27.4989011,3.40595199 C25.7802198,3.80736398 24.3648352,4.81089397 23.4549451,6.31618895 C22.5450549,7.82148394 22.2417582,9.52748492 22.6461538,11.2334859 L24.9714286,22.1719628 L21.432967,31.7054977 C20.2197802,30.3005557 18.4,29.2970257 16.378022,29.2970257 C13.3450549,29.2970257 10.7164835,31.4044387 10.1098901,34.2143226 C9.0989011,33.5118516 7.78461538,33.1104396 6.47032967,33.1104396 C2.83076923,33.1104396 0,36.0206766 0,39.5330316 L0,56.1916294 C0,69.2375192 2.22417582,74.8572871 3.84175824,78.9717601 C4.75164835,81.2798791 5.45934066,82.98588 5.45934066,85.394352 C5.45934066,86.197176 6.16703297,86.899647 6.97582418,86.899647 C7.78461538,86.899647 8.49230769,86.197176 8.49230769,85.394352 C8.49230769,82.3837621 7.68351648,80.2763491 6.67252747,77.8678771 C5.35824176,74.4558751 3.53846154,69.9399902 3.13406593,60.6071613 C4.14505495,61.2092793 5.25714286,61.5103383 6.47032967,61.5103383 C9.5032967,61.5103383 12.1318681,59.4029253 12.7384615,56.5930414 C13.7494505,57.2955124 15.0637363,57.6969243 16.378022,57.6969243 C20.0175824,57.6969243 22.8483516,54.7866874 22.8483516,51.2743324 L22.8483516,42.7443275 C24.6681319,45.3535055 27.8021978,46.7584475 30.632967,47.9626835 L32.8571429,54.8870404 C25.2747253,56.3923354 22.1406593,66.2269292 22.0395604,66.6283412 C21.8373626,67.4311652 22.2417582,68.2339892 23.0505495,68.5350482 C23.8593407,68.7357542 24.6681319,68.3343422 24.9714286,67.5315182 C24.9714286,67.4311652 28.0043956,57.6969243 34.8791209,57.6969243 C35.3846154,57.6969243 35.789011,57.4962183 36.0923077,57.0948064 C36.3956044,56.6933944 36.4967033,56.1916294 36.2945055,55.7902174 L33.2615385,46.4573885 C33.1604396,46.0559765 32.8571429,45.6545645 32.4527473,45.5542115 C26.1846154,42.8446805 23.2527473,40.9379735 24.8703297,35.4185586 L29.0153846,37.0242066 C29.0153846,37.0242066 29.0153846,37.0242066 29.0153846,37.0242066 L34.4747253,39.2319726 C35.8901099,39.8340906 37.0021978,40.6369145 37.9120879,42.0418565 L42.3604396,51.6757444 C42.8659341,53.3817454 42.8659341,54.0842164 42.8659341,56.0912764 L42.8659341,56.2919824 C42.6637363,66.9294002 40.1362637,72.5491682 38.1142857,77.0650531 C36.8,79.9752901 35.6879121,82.4841151 35.6879121,85.494705 C35.6879121,86.297529 36.3956044,87 37.2043956,87 C38.0131868,87 38.7208791,86.297529 38.7208791,85.494705 C38.7208791,83.086233 39.6307692,81.0791731 40.843956,78.2692891 C42.8659341,73.7534042 45.5956044,67.6318712 46,56.2919824 L46,55.9909234 C46,53.7831574 46,52.7796274 45.2923077,50.5718614 Z M36.3956044,3.30559899 C37.2043956,2.90418699 38.2153846,2.90418699 39.0241758,3.20524599 C39.9340659,3.50630499 40.6417582,4.10842298 40.9450549,5.01159997 C41.2483516,5.91477696 41.3494505,6.81795395 41.0461538,7.62077794 L37.2043956,17.9571368 L34.9802198,8.22289593 C34.778022,7.52042494 34.4747253,6.81795395 34.0703297,6.21583595 L34.3736264,5.31265896 C34.8791209,4.30912898 35.5868132,3.70701098 36.3956044,3.30559899 Z M9.90769231,55.0877464 C9.90769231,56.9944534 8.39120879,58.4997483 6.47032967,58.4997483 C4.65054945,58.4997483 3.13406593,57.0948064 3.03296703,55.3888054 L3.03296703,55.0877464 C3.03296703,54.9873934 3.03296703,54.8870404 3.03296703,54.7866874 L3.03296703,39.6333846 C3.03296703,37.7266776 4.54945055,36.2213826 6.47032967,36.2213826 C8.39120879,36.2213826 9.90769231,37.7266776 9.90769231,39.6333846 L9.90769231,51.2743324 L9.90769231,55.0877464 Z M19.9164835,51.2743324 C19.9164835,53.1810394 18.4,54.6863344 16.4791209,54.6863344 C14.5582418,54.6863344 13.0417582,53.1810394 13.0417582,51.2743324 L13.0417582,39.6333846 L13.0417582,35.8199706 C13.0417582,33.9132636 14.5582418,32.4079686 16.4791209,32.4079686 C18.4,32.4079686 19.9164835,33.9132636 19.9164835,35.8199706 L19.9164835,51.2743324 Z M24.567033,31.9062037 L26.1846154,27.4906717 L27.4989011,33.0100866 L24.567033,31.9062037 Z M35.6879121,36.3217356 L30.9362637,34.4150286 L25.3758242,10.4306619 C25.1736264,9.52748492 25.2747253,8.62430793 25.7802198,7.82148394 C26.2857143,7.01865994 27.0945055,6.51689495 27.9032967,6.31618895 C28.8131868,6.11548296 29.7230769,6.21583595 30.5318681,6.71760095 C31.3406593,7.21936594 31.8461538,8.02218993 32.0483516,8.82501392 L38.7208791,38.3287956 C37.9120879,37.4256186 36.9010989,36.8235006 35.6879121,36.3217356 Z" id="Shape"></path>
        </g>
    </g>
</svg>