<?xml version="1.0" encoding="utf-8"?>
<!-- Generator: Adobe Illustrator 26.0.2, SVG Export Plug-In . SVG Version: 6.00 Build 0)  -->
<svg version="1.1" id="Layer_1" xmlns="http://www.w3.org/2000/svg" xmlns:xlink="http://www.w3.org/1999/xlink" x="0px" y="0px"
	 viewBox="0 0 189 216.1" style="enable-background:new 0 0 189 216.1;" xml:space="preserve">
<style type="text/css">
	.st0{fill-rule:evenodd;clip-rule:evenodd;}
</style>
<desc>Created with Sketch.</desc>
<g>
	<path id="Fill-4" class="st0" d="M173.4,199.1c0,0.8-0.6,1.4-1.4,1.4H28.9c-7.3,0-13.3-5.9-13.3-13.2s5.9-13.2,13.3-13.2h144.5
		V199.1z M61.5,42.4c3.1,0,6.1,0.6,8.8,1.8c3-9.1,11.5-15.6,21.6-15.6s18.6,6.4,21.6,15.6c2.8-1.2,5.8-1.8,8.8-1.8
		c12.5,0,22.7,10.1,22.7,22.6c0,6.2-3.7,12.6-9.9,17.5V145c0,1.8-1.5,3.3-3.3,3.3H52.1c-1.8,0-3.3-1.5-3.3-3.3V82.4
		c-6.3-4.9-9.9-11.3-9.9-17.5C38.8,52.5,49,42.4,61.5,42.4L61.5,42.4z M156.8,8.8H32.2h-6.6H22c-7.2,0-13,5.8-13,12.9v165.6
		c0,10.9,8.9,19.8,19.9,19.8H172c4.4,0,8-3.6,8-8V23c0-7.9-6.4-14.2-14.3-14.2l0,0h-2.3H156.8z M28.9,167.4"/>
</g>
</svg>
