<?xml version="1.0" standalone="no"?>
<!DOCTYPE svg PUBLIC "-//W3C//DTD SVG 20010904//EN"
 "http://www.w3.org/TR/2001/REC-SVG-20010904/DTD/svg10.dtd">
<svg version="1.0" xmlns="http://www.w3.org/2000/svg"
 width="270.000000pt" height="270.000000pt" viewBox="0 0 270.000000 270.000000"
 preserveAspectRatio="xMidYMid meet">
<metadata>
Created by potrace 1.14, written by Peter Selinger 2001-2017
</metadata>
<g transform="translate(0.000000,270.000000) scale(0.100000,-0.100000)"
fill="#000000" stroke="none">
<path d="M495 2453 c-38 -10 -84 -53 -95 -91 -8 -26 -10 -332 -8 -1007 3 -881
5 -973 20 -1000 23 -42 62 -80 106 -102 35 -17 84 -18 885 -21 l848 -2 30 29
29 29 0 1022 c0 1098 2 1059 -51 1106 -50 44 -53 44 -918 43 -454 -1 -835 -4
-846 -6z m931 -239 c43 -18 112 -87 126 -124 8 -26 12 -28 34 -19 35 13 109
11 157 -3 62 -19 135 -92 157 -158 32 -93 14 -167 -58 -242 l-36 -38 0 -357
c-1 -197 -5 -364 -9 -370 -6 -10 -112 -13 -471 -13 -408 0 -465 2 -477 16 -10
12 -13 95 -13 369 l-1 353 -32 35 c-69 76 -90 154 -64 246 16 57 100 142 157
159 49 14 123 16 157 3 22 -9 27 -6 37 19 15 37 72 95 113 117 65 34 152 37
223 7z m810 -1754 c0 -74 -1 -140 -3 -145 -2 -7 -273 -10 -831 -10 -921 1
-867 -3 -911 69 -46 74 -24 159 54 207 29 18 66 19 860 16 l830 -2 1 -135z"/>
</g>
</svg>
