<svg xmlns="http://www.w3.org/2000/svg" xmlns:xlink="http://www.w3.org/1999/xlink" version="1.1" x="0px" y="0px" viewBox="0 0 100 100" enable-background="new 0 0 100 100" xml:space="preserve"><path d="M72.8,50.6c0-0.2,0-0.4-0.1-0.6l-3-6.5v-29c0-3.6-2.9-6.4-6.4-6.4s-6.4,2.9-6.4,6.4v20.4c-1-0.6-2.2-1-3.4-1  c-3,0-5.6,2.1-6.2,4.9c-1-0.7-2.3-1.1-3.6-1.1c-3,0-5.6,2.1-6.2,4.9c-1-0.7-2.3-1.1-3.6-1.1c-3.6,0-6.4,2.9-6.4,6.4v15.4  c0,0.2,0,0.4,0,0.6v0.6c0,13,2.2,18.6,3.8,22.7c0.9,2.3,1.6,4,1.6,6.4c0,0.8,0.7,1.5,1.5,1.5s1.5-0.7,1.5-1.5c0-3-0.8-5.1-1.8-7.5  c-1.3-3.4-3.1-7.9-3.5-17.2c1,0.6,2.1,0.9,3.3,0.9c3,0,5.6-2.1,6.2-4.9c1,0.7,2.3,1.1,3.6,1.1c3,0,5.6-2.1,6.2-4.9  c1,0.7,2.3,1.1,3.6,1.1c2.9,0,5.4-2,6.2-4.7v4.8c-7.4,1-10.4,12.1-10.5,12.6c-0.2,0.8,0.3,1.6,1.1,1.8c0.8,0.2,1.6-0.3,1.8-1.1  c0.8-2.9,3.8-10.4,8.7-10.4h0.4c0.8,0,1.5-0.7,1.5-1.5v-7.7c0-0.2,0-0.3-0.1-0.5c-3.6-10-3.2-14.8,1.4-17.4L69.8,51l0,13.4  c0,12.3-2.8,17.6-4.8,21.4c-1.3,2.5-2.5,4.6-2.5,7.7c0,0.8,0.7,1.5,1.5,1.5s1.5-0.7,1.5-1.5c0-2.3,0.9-4,2.1-6.3  c2.2-4.1,5.2-9.8,5.2-22.8L72.8,50.6z M37,63.2c0,1.9-1.5,3.4-3.4,3.4c-1.8,0-3.3-1.4-3.4-3.1v-0.3c0-0.1,0-0.2,0-0.3V47.8  c0-1.9,1.5-3.4,3.4-3.4s3.4,1.5,3.4,3.4v11.6V63.2z M46.9,59.4c0,1.9-1.5,3.4-3.4,3.4S40,61.3,40,59.4V47.8V44  c0-1.9,1.5-3.4,3.4-3.4s3.4,1.5,3.4,3.4v11.6V59.4z M56.8,55.7c0,1.9-1.5,3.4-3.4,3.4s-3.4-1.5-3.4-3.4V44v-3.8  c0-1.9,1.5-3.4,3.4-3.4s3.4,1.5,3.4,3.4v12V55.7z M64,34.7c-1.8,0.7-3.2,1.7-4.2,2.8v-23c0-1.9,1.5-3.4,3.4-3.4s3.4,1.5,3.4,3.4V37  L66,35.4C65.6,34.7,64.8,34.4,64,34.7z"></path></svg>