<svg xmlns="http://www.w3.org/2000/svg" xmlns:xlink="http://www.w3.org/1999/xlink" version="1.1" x="0px" y="0px" viewBox="0 0 100 100" enable-background="new 0 0 100 100" xml:space="preserve"><path d="M72.1,57.1c0-0.1,0-0.1-0.1-0.2L71,54.5L65.5,30l5.4-14.7c0.6-1.6,0.5-3.4-0.2-4.9c-0.7-1.6-2-2.7-3.6-3.3  c-1.6-0.6-3.4-0.5-4.9,0.2c-1.5,0.7-2.6,1.9-3.2,3.4c-1.4-0.7-3-1-4.5-0.6c-1.7,0.4-3.1,1.4-4,2.9s-1.2,3.2-0.8,4.9L52,28.8  l-3.5,9.5c-1.2-1.4-3-2.4-5-2.4c-3,0-5.6,2.1-6.2,4.9c-1-0.7-2.3-1.1-3.6-1.1c-3.6,0-6.4,2.9-6.4,6.4l0,16.6c0,13,2.2,18.6,3.8,22.7  c0.9,2.3,1.6,4,1.6,6.4c0,0.8,0.7,1.5,1.5,1.5s1.5-0.7,1.5-1.5c0-3-0.8-5.1-1.8-7.5c-1.3-3.4-3.1-7.9-3.5-17.2  c1,0.6,2.1,0.9,3.3,0.9c3,0,5.6-2.1,6.2-4.9c1,0.7,2.3,1.1,3.6,1.1c3.6,0,6.4-2.9,6.4-6.4v-8.5c1.8,2.6,4.9,4,7.7,5.2l2.2,6.9  c-7.5,1.5-10.6,11.3-10.7,11.7c-0.2,0.8,0.2,1.6,1,1.9c0.8,0.2,1.6-0.2,1.9-1c0-0.1,3-9.8,9.8-9.8c0.5,0,0.9-0.2,1.2-0.6  c0.3-0.4,0.4-0.9,0.2-1.3l-3-9.3c-0.1-0.4-0.4-0.8-0.8-0.9c-6.2-2.7-9.1-4.6-7.5-10.1l4.1,1.6c0,0,0,0,0,0l5.4,2.2  c1.4,0.6,2.5,1.4,3.4,2.8l4.4,9.6c0.5,1.7,0.5,2.4,0.5,4.4l0,0.2C69.5,73.4,67,79,65,83.5c-1.3,2.9-2.4,5.4-2.4,8.4  c0,0.8,0.7,1.5,1.5,1.5s1.5-0.7,1.5-1.5c0-2.4,0.9-4.4,2.1-7.2c2-4.5,4.7-10.6,5.1-21.9v-0.3C72.8,60.3,72.8,59.3,72.1,57.1z   M63.3,10c0.8-0.4,1.8-0.4,2.6-0.1c0.9,0.3,1.6,0.9,1.9,1.8s0.4,1.8,0.1,2.6l-3.8,10.3l-2.2-9.7c-0.2-0.7-0.5-1.4-0.9-2l0.3-0.9  C61.8,11,62.5,10.4,63.3,10z M37.1,61.6c0,1.9-1.5,3.4-3.4,3.4c-1.8,0-3.3-1.4-3.4-3.1v-0.3c0-0.1,0-0.2,0-0.3V46.2  c0-1.9,1.5-3.4,3.4-3.4s3.4,1.5,3.4,3.4v11.6V61.6z M47,57.8c0,1.9-1.5,3.4-3.4,3.4s-3.4-1.5-3.4-3.4V46.2v-3.8  c0-1.9,1.5-3.4,3.4-3.4s3.4,1.5,3.4,3.4V57.8z M51.6,38.5l1.6-4.4l1.3,5.5L51.6,38.5z M62.6,42.9L57.9,41l-5.5-23.9  c-0.2-0.9-0.1-1.8,0.4-2.6c0.5-0.8,1.3-1.3,2.1-1.5c0.9-0.2,1.8-0.1,2.6,0.4c0.8,0.5,1.3,1.3,1.5,2.1l6.6,29.4  C64.8,44,63.8,43.4,62.6,42.9z"></path></svg>